<svg width="72" height="28" viewBox="0 0 72 28" fill="none" xmlns="http://www.w3.org/2000/svg">
<path d="M45.6742 0.0771688C45.6742 0.0771688 45.5933 0.0165948 45.5326 0.00649914C45.3203 -0.0338835 45.1181 0.117551 44.8047 0.359847L44.5621 0.541569C43.7028 0.995874 43.0457 3.14625 42.9042 4.02457C42.8738 4.03467 42.8637 4.05486 42.8132 4.07505C42.2875 3.16644 41.317 2.31841 40.3162 2.18716C40.7104 3.71161 42.055 8.31523 43.8443 7.9114C44.7542 7.70949 46.6447 3.89333 46.6649 1.78334V1.70257C46.6548 0.592048 46.1392 0.188221 45.6742 0.0569775V0.0771688Z" fill="#F08300"></path>
<path d="M57.7349 23.5193C55.4906 23.6102 54.7526 23.489 52.5487 24.2159C52.2454 24.3068 51.9725 24.5188 51.7299 24.7914C51.7602 25.2558 51.4872 25.9827 51.9219 26.1543C51.9422 26.1543 51.9422 26.225 51.9624 26.2653C52.0938 26.3966 52.2252 26.4067 52.3465 26.5682C52.4274 26.6894 52.4982 26.5581 52.5892 26.6086C52.6296 26.649 52.6498 26.7197 52.6903 26.7297C52.9026 26.8307 53.1047 26.7903 53.317 26.9014C53.4282 26.9922 53.5394 26.972 53.6405 26.9821C53.7012 26.9519 53.7922 27.1134 53.8124 27.1538C54.2168 27.3254 54.6009 27.174 55.0053 27.1639C56.2488 27.1437 56.0163 27.0225 57.2597 27.0023C58.3111 26.9821 59.322 27.1437 60.3734 27.1336C60.9395 27.1134 61.5562 27.1336 62.1223 27.0932C63.1232 27.0326 64.124 27.1841 65.1349 27.2042C65.6404 27.1941 66.2166 27.386 66.7221 27.4263C67.268 27.4263 67.7836 27.285 68.3396 27.3961C68.5115 27.4062 68.6833 27.386 68.8653 27.4667C69.0271 27.5475 69.209 27.6283 69.3607 27.6384C69.8459 27.6686 70.2705 27.497 70.7356 27.3153C71.0085 27.2345 71.2916 27.1841 71.5443 27.0225C71.6757 26.9619 71.7869 26.76 71.8375 26.5581C71.9689 26.1846 72.07 25.7707 71.9386 25.3466C71.9184 25.3466 71.8476 25.3769 71.8274 25.3466C71.7768 25.276 71.7869 25.1043 71.7263 25.0943C71.5241 25.0135 71.332 24.9933 71.1298 24.9529C70.867 24.8923 70.594 24.7712 70.3312 24.7207C69.0877 24.4178 61.9909 23.3477 57.7349 23.5294V23.5193Z" fill="#009F73"></path>
<path d="M36.0299 24.3371C36.2524 24.3875 36.5152 24.3875 36.6365 24.5289C36.7578 24.65 36.5152 24.8418 36.5354 24.9933C36.5354 25.3668 36.6668 25.7 36.6668 26.0634C36.6668 26.124 36.6466 26.1846 36.5759 26.2552C36.5152 26.3461 36.4141 26.447 36.3029 26.5076C35.9895 26.7095 35.575 26.6288 35.2212 26.7297C34.7562 26.8711 34.2507 26.9215 33.7756 26.972C32.9061 27.0629 32.0772 26.8812 31.1976 26.8509C30.864 26.8307 30.5001 26.8812 30.217 26.9821C29.8228 27.0831 29.4184 27.073 29.014 27.0629C26.9113 26.9821 24.859 26.9417 22.7664 26.9619C22.4025 26.972 21.9981 27.0225 21.6341 27.0326C19.956 27.1235 18.2778 27.0932 16.5997 27.1436C16.0133 27.1638 15.427 27.1739 14.8406 27.1638C14.507 27.1638 14.1835 27.184 13.8903 27.184C12.6469 27.2446 11.3731 27.3052 10.1195 27.2547C9.64438 27.2547 9.1288 27.2547 8.65366 27.2648C7.26867 27.3355 5.85335 27.5677 4.44814 27.4869C3.41698 27.4364 2.45659 27.1941 1.5063 26.7095C0.8593 26.3764 0.363939 25.9221 0 25.3668C0.242626 25.0538 0.596455 24.9327 1.00083 24.8317C1.94101 24.5793 2.81042 24.4178 3.75059 24.2563C4.54924 24.125 5.27711 24.0544 6.04543 23.9837C16.1043 23.0852 27.3763 23.4183 31.7739 23.7111C33.2499 23.8121 34.6247 24.0039 36.0502 24.3169L36.0299 24.3371Z" fill="#0073BD"></path>
<path d="M54.1865 14.948V15.0591C54.2775 15.2913 54.4494 15.3519 54.6313 15.5134H55.2177C55.2177 15.4023 55.3491 15.5134 55.3491 15.4023C55.4805 15.4023 55.6827 15.3519 55.7737 15.1701H55.8647C55.9658 14.9985 56.1073 14.8774 56.2994 14.8774C56.542 14.5947 56.7745 14.3019 57.0172 14.0192C57.0172 13.8981 57.0677 13.787 57.1587 13.7264C57.3002 13.2116 57.4013 12.6361 57.6439 12.1212C57.6439 11.9496 57.7349 11.7174 57.6945 11.5458C57.745 11.5458 57.7855 11.5458 57.7855 11.4852C57.7349 11.253 57.8765 11.142 57.9776 11.0208C58.0787 11.0208 58.1696 11.0208 58.2202 10.9098V10.7987C58.4628 10.7987 58.7257 10.9703 58.9177 11.2025H59.2311C59.2311 11.3237 59.2918 11.3237 59.3625 11.3742C59.6153 11.3742 60.1713 11.3136 60.424 11.4246C60.424 11.5963 60.6768 11.5458 60.7374 11.7174C60.7981 11.889 60.7981 12.0607 60.9295 12.2323C60.9295 12.2929 60.9295 12.3433 60.8688 12.4039C61.0003 12.5755 61.1216 12.8582 60.9295 13.0298C60.9902 13.262 60.9295 13.5447 61.0508 13.7769C60.9295 13.888 60.9902 14.0697 60.9902 14.1808C61.1115 14.413 61.1115 14.6956 61.1822 14.9884C61.435 15.2711 61.3743 15.6244 61.5563 15.9071V16.2504C61.6776 16.2504 61.5563 16.422 61.6776 16.422C61.7383 16.7652 61.5563 17.1691 61.5563 17.5123C61.4956 17.5628 61.4249 17.6234 61.3642 17.6839V17.795C61.3036 17.795 61.2429 17.795 61.2429 17.7344C61.1115 17.9061 60.9295 18.0272 60.7981 18.1988C60.6768 18.1383 60.606 18.2594 60.5453 18.2594C60.424 18.2594 60.5453 18.431 60.424 18.431C60.3027 18.431 60.1713 18.4916 60.1106 18.5421C59.9792 18.6027 59.5546 18.4815 59.4333 18.6027L59.3727 18.5421C59.312 18.6027 59.2412 18.6531 59.1199 18.6531C59.1199 18.5926 59.1199 18.5421 59.0593 18.5421C58.9986 18.7137 58.7155 18.8349 58.5538 18.7743C58.5032 18.6632 58.5235 18.5724 58.3819 18.5219C58.3314 18.1584 58.3314 17.8455 58.1393 17.5325C58.1899 17.5325 58.1899 17.482 58.1899 17.4316C58.1393 17.27 58.0483 17.1186 58.0483 16.9672C57.9068 16.7551 57.8562 16.4523 57.6642 16.2907C57.7147 16.2403 57.5631 16.1898 57.6136 16.1292C57.5226 16.0283 57.4721 15.9778 57.371 15.8667C57.28 15.8667 57.28 15.9172 57.2295 15.9677C57.1789 16.2302 56.9363 16.4321 56.8958 16.6946L56.8453 16.6441C56.7948 16.7955 56.6532 16.9066 56.6532 17.058C56.5622 17.1085 56.5117 17.2599 56.4207 17.3104V17.4114C56.0871 17.7243 55.9051 18.2291 55.5007 18.4411C55.3997 18.6531 55.1469 18.7036 55.0458 18.9459C54.8942 18.9459 54.6617 19.0065 54.4696 19.0671C54.3483 19.0065 54.1562 18.8853 54.0349 19.0065C54.0349 18.9459 53.9742 18.9459 53.9136 18.9459L53.8529 19.0065C53.7316 18.8853 53.5395 19.0065 53.3474 18.9459C52.9734 18.643 52.5286 18.5219 52.0939 18.2796C51.9625 18.2796 52.0939 18.0979 51.9625 18.0979C51.9018 18.0979 51.8411 18.0979 51.7805 18.0373C51.7805 17.8556 51.8411 17.7344 51.6592 17.6133L51.7198 17.5527C51.7198 17.4921 51.6592 17.4921 51.5985 17.4921C51.5379 17.1287 51.3458 16.8258 51.2851 16.4624C51.2379 16.422 51.1975 16.3816 51.1638 16.3412C51.1638 16.1595 51.1032 15.9778 51.0324 15.8566C50.9717 15.6143 51.184 15.4124 51.0627 15.1802C51.0627 15.1297 51.0627 15.0692 51.1234 15.0086C51.0627 14.7158 51.1234 14.5442 51.184 14.2615C51.1234 14.2615 51.1234 14.211 51.1234 14.1505C51.2447 13.9183 51.2447 13.6861 51.2447 13.464C51.3053 13.2923 51.4267 13.1207 51.4772 12.9491L51.4165 12.8885C51.5379 12.7775 51.4772 12.5957 51.6592 12.4847C51.6592 12.4241 51.6592 12.3736 51.5985 12.3736C51.5985 12.2525 51.7198 12.202 51.7805 12.1414C51.8411 12.0304 52.0737 11.5761 52.2152 11.4852L52.1748 11.4145C52.2758 11.2631 52.5488 11.2025 52.7611 11.1823C52.9228 11.1622 53.2261 11.3237 53.3171 11.3742C53.3879 11.5054 53.3171 11.6165 53.4081 11.7881H53.4991V11.8991C53.4991 11.9597 53.5395 11.9597 53.5901 11.9597C53.6305 12.1313 53.7215 12.303 53.6811 12.4746C53.6811 12.5352 53.7316 12.5352 53.772 12.5352C53.7316 12.6462 53.863 12.7674 53.863 12.8784C53.772 12.9895 53.863 13.1712 53.8125 13.3428C53.9439 13.6255 53.9035 13.9788 54.0349 14.2615C54.0349 14.4937 54.1259 14.7259 54.2169 14.8975L54.1865 14.948Z" fill="white"></path>
<path d="M31.0361 17.0783C31.0361 17.0783 31.2686 17.2297 31.3292 17.3408C31.3899 17.4518 31.5112 17.5932 31.6022 17.6234C31.7235 17.6739 31.8448 17.7446 31.8448 17.7446L31.9257 17.9061L32.1178 18.0878C32.32 18.1484 32.3705 18.0273 32.5221 18.2494C32.5929 18.2494 32.6637 18.2494 32.6637 18.3099L32.7344 18.2494C32.8052 18.3705 32.9366 18.4311 33.0074 18.4917C33.2096 18.4917 33.3915 18.5724 33.5331 18.6835C33.6038 18.6835 33.614 18.8248 33.614 18.7642C33.8263 18.8248 33.9678 18.9662 34.1093 18.8349C34.1801 18.8349 34.2509 18.8349 34.2509 18.8955L34.3216 18.8349C34.4631 18.7743 34.4935 18.9359 34.6249 18.8753C34.6957 18.8753 34.6957 18.9359 34.6957 18.9964H34.8271C34.9686 19.1176 35.555 18.9561 35.6864 19.0772C36.4648 19.1782 37.7386 18.9964 37.7386 18.9964C37.7386 18.8753 37.9408 18.9964 37.9408 18.8854L38.0014 18.946C38.2643 19.0166 38.5372 18.7239 38.8001 18.845C38.8473 18.8114 38.8944 18.7743 38.9416 18.734C39.073 18.6835 39.2651 18.9258 39.4067 18.7542C39.4067 18.8147 39.4673 18.8147 39.5381 18.8147C39.5381 18.7743 39.5381 18.734 39.5381 18.6936C39.7403 18.5825 39.993 18.6128 40.1446 18.4513C40.2154 18.4513 40.3367 18.4715 40.4075 18.4816C40.4547 18.4479 40.5018 18.4143 40.549 18.3806C40.8927 18.2998 41.1859 18.0273 41.5802 17.9465C41.6408 17.8859 41.7723 17.8657 41.8329 17.7446C41.8936 17.7446 41.9643 17.7345 42.0351 17.7244C42.0958 17.6638 42.1564 17.5932 42.2171 17.5326C42.4193 17.573 42.6012 17.2903 42.7933 17.2701C42.7933 17.2196 42.7731 17.1489 42.8337 17.1489L42.9045 17.1994C42.9854 17.1456 43.0393 17.0783 43.0663 16.9975C43.2684 17.0278 43.3797 16.7754 43.4909 16.6341C43.5313 16.6341 43.5751 16.6273 43.6223 16.6139C43.6695 16.6004 43.7065 16.5567 43.7335 16.4826C43.7604 16.4086 43.8042 16.4019 43.8649 16.4624C44.0368 16.3211 44.1379 16.1192 44.3906 16.0283C44.3906 15.9677 44.3704 15.9173 44.431 15.8971C44.5726 15.9375 44.5422 15.7658 44.5928 15.6952C44.6534 15.6548 44.8253 15.5336 44.8657 15.5841C44.8657 15.6851 45.0376 15.3317 45.0275 15.4327C45.078 15.4933 45.3004 14.8976 45.351 14.8572L44.8051 13.4236C44.6029 13.7063 43.8851 14.6452 43.501 14.7361C43.501 15.0389 43.1674 15.049 42.9449 15.2207C42.9551 15.2711 42.9753 15.3317 42.9045 15.3519C42.7124 15.3923 42.6316 15.6144 42.5001 15.6346C42.49 15.574 42.4193 15.5942 42.3586 15.6043C42.3081 15.675 42.1766 15.7053 42.1463 15.8365C41.9542 15.8769 41.8936 16.0687 41.7824 16.2L41.7116 16.1596C41.4791 16.3716 41.1455 16.3514 40.9837 16.6139C40.6097 16.7855 40.2963 16.8461 39.902 16.9975C39.8414 16.9975 39.7706 16.9975 39.7706 16.947C39.7099 17.0682 39.4471 16.9672 39.3864 17.0884C38.9922 17.1187 38.6586 17.0783 38.2643 17.159C38.2643 17.048 38.0621 17.1691 38.0621 17.0581C37.7386 17.1994 37.405 17.0177 37.0815 17.0177C37.0107 16.9571 36.8793 16.9571 36.8186 16.8461C36.485 16.9066 36.293 16.8461 36.0908 16.6744C35.8886 16.6744 35.7572 16.4927 35.5651 16.4422V16.3312C35.5246 16.2908 35.4808 16.2504 35.4337 16.21C35.4337 16.0384 35.6358 16.0384 35.7673 15.9778C35.8987 15.8062 36.2525 15.8466 36.3839 15.6649C36.3839 15.6043 36.5659 15.4933 36.5659 15.4327C36.6266 15.3115 36.6771 15.2005 36.7378 15.2005C36.94 15.0793 36.8085 14.9481 37.0714 14.8875C37.0714 14.8269 37.2837 14.6856 37.2129 14.625C37.4758 14.4534 37.4758 14.3524 37.5364 13.9991C37.6678 13.8275 37.8599 13.6357 37.8599 13.4035C37.9206 13.3429 37.8397 13.0905 37.9812 13.0299C38.0419 12.6261 37.8801 12.404 37.8801 11.9901C37.833 11.9497 37.7891 11.9093 37.7487 11.8689C37.7487 11.6872 37.6173 11.5761 37.6881 11.4045C37.496 11.2228 37.5364 11.1723 37.3443 11.0007L37.2331 10.8795H37.1017C37.0309 10.7584 36.8389 10.7079 36.8389 10.5868C36.576 10.5262 36.3132 10.3546 36.0503 10.2334L35.9796 10.294L35.9088 10.2334C35.8684 10.2738 35.8245 10.3142 35.7774 10.3546C35.7774 10.1728 35.5853 10.3546 35.5145 10.2334C35.3831 10.2334 35.2517 10.1728 35.1203 10.294C34.726 10.1728 34.2913 10.3848 33.897 10.2031C33.897 10.3243 33.6342 10.1426 33.6342 10.3243C33.5028 10.3848 33.3107 10.3748 33.25 10.4353H33.0478C32.8456 10.607 32.6839 10.819 32.2896 10.819C32.1582 10.819 32.2896 10.9906 32.1582 10.9906H32.0268C31.6932 11.2834 31.4303 11.6367 31.0361 11.8689C31.0361 11.9295 30.9046 11.9901 30.9653 12.1011C30.9653 12.1617 30.8945 12.1617 30.8339 12.1617C30.8339 12.2727 30.7732 12.3333 30.7024 12.3939C30.7024 12.4545 30.7024 12.515 30.7732 12.515C30.7732 12.5756 30.6721 12.727 30.6115 12.727C30.5508 12.9592 30.5508 13.2015 30.3486 13.3126C30.3486 13.777 30.2071 14.0092 30.1768 14.5241C30.2273 14.7967 30.2475 15.2106 30.2475 15.4529C30.4497 15.574 30.197 15.574 30.3385 15.7557C30.4093 15.7557 30.3688 15.8567 30.3688 15.9274C30.4396 16.0485 30.662 16.1394 30.5811 16.2605C30.5811 16.3211 30.6923 16.3817 30.7631 16.3817C30.8339 16.5028 30.662 16.6341 30.8035 16.6946C30.8035 16.7552 31.0259 16.7047 30.9552 16.8259L31.0765 17.0884L31.0361 17.0783ZM35.3427 13.2621C35.2112 13.3227 35.3427 13.4438 35.2112 13.5145L35.282 13.5751C35.2315 14.0799 34.9181 14.7563 34.2104 15.251C34.1498 15.251 34.079 15.251 34.079 15.1904C34.079 15.0692 33.9476 14.8774 34.0183 14.7563C34.0183 14.6957 33.9476 14.6957 33.8869 14.6957C34.0183 14.5745 33.7959 14.4433 33.8667 14.2616C33.7959 14.2616 33.7959 14.201 33.7959 14.1404C33.9981 14.0193 33.8364 13.6962 34.0386 13.5751L33.9678 13.5145C34.0386 13.3934 34.1396 13.2015 34.2711 13.0703V12.9491C34.544 12.7068 34.8877 12.5958 35.2214 12.4746C35.2921 12.4746 35.3528 12.4746 35.3528 12.5352C35.555 12.7876 35.4235 13.0299 35.3528 13.2823L35.3427 13.2621Z" fill="white"></path>
<path d="M46.8167 12.7069C46.8167 12.7877 46.837 12.8684 46.837 12.9492C47.2919 13.3833 47.2009 14.1304 47.5042 14.6655C47.3627 14.8472 47.4637 15.0794 47.4031 15.251C47.4637 15.2981 47.5244 15.3453 47.5851 15.3924C47.4637 15.8164 47.7468 16.1899 47.7064 16.6038C47.6592 16.6644 47.612 16.725 47.5648 16.7856C47.5648 16.8663 47.5851 16.9471 47.6659 16.937L47.5952 17.0279L47.6862 17.0985L47.6154 17.1894C47.6963 17.1793 47.7064 17.2601 47.7165 17.3408C47.575 17.5225 47.8378 17.7346 47.6154 17.9264C47.7064 17.997 47.7064 18.0778 47.7165 18.1586C47.4941 18.3504 47.6255 18.6936 47.4739 18.946L47.5547 19.0268L47.4739 19.1177L47.393 19.0369C47.3121 19.0369 47.3121 19.1278 47.3222 19.1984C47.4031 19.36 47.5749 19.5114 47.4132 19.683L47.4941 19.7537C47.2514 19.9253 47.1807 20.1373 47.1099 20.3695C47.0627 20.4234 47.0122 20.4772 46.9583 20.5311C47.0392 20.6017 47.0392 20.6825 47.0392 20.7633C46.8976 20.9248 46.8167 21.0863 46.6752 21.2479C46.6752 21.3286 46.7561 21.4801 46.6044 21.5608L46.6853 21.6315C46.6146 21.793 46.5438 22.0252 46.473 22.1867C46.5438 22.1867 46.5539 22.2574 46.5539 22.3382C46.3315 22.5098 46.0788 22.6814 46.1596 22.9944C46.0181 23.2367 45.826 23.3175 45.6845 23.5598C45.7654 23.7112 45.4216 23.7819 45.4216 23.9333C45.4216 24.0847 45.1992 24.0242 45.2801 24.1756L45.361 24.2463C45.3138 24.2463 45.2633 24.2463 45.2093 24.2463C45.1554 24.3539 45.0813 24.4347 44.9869 24.4886C44.9869 24.5693 44.9869 24.6501 44.9162 24.6501C44.7848 24.751 44.714 24.8722 44.5725 25.0337C44.6533 25.1044 44.3298 25.2659 44.4006 25.276C44.3197 25.3467 44.2388 25.4275 44.2186 25.5789C44.1479 25.5789 44.067 25.5789 44.0569 25.6496V25.7505C44.0063 25.801 43.9962 25.801 43.885 25.8313C43.2987 26.5077 42.4394 26.7702 41.8429 27.4365C41.6812 27.5072 41.5295 27.5778 41.3678 27.6485C41.206 27.7192 41.2667 27.9514 41.1251 27.8605C41.1251 27.7797 40.923 27.9312 40.8522 27.9211C40.6803 28.0725 40.4377 27.9615 40.2861 27.9514C40.2861 27.8706 40.2052 27.8908 40.1344 27.81L40.0535 27.8807C39.9828 27.7999 39.821 27.6384 39.7402 27.6384C39.6694 27.5576 39.821 27.4769 39.7402 27.4769L39.821 27.4062C39.821 27.3254 39.6997 27.3153 39.629 27.3052C39.4975 27.1437 39.7806 27.2649 39.7199 27.1033L39.4268 27.0831C39.356 26.9317 39.2145 26.9216 39.1538 26.7702C39.1639 26.6187 39.4975 26.6187 39.5076 26.4673C39.6593 26.4673 39.6087 26.4572 39.7705 26.3764L39.7098 26.2654C39.8716 26.1947 39.8412 26.0635 39.9221 26.0635C39.9221 26.1442 39.9828 26.0534 40.0535 26.0635C40.1344 26.0635 40.2052 26.0635 40.2153 25.9928C40.2153 25.912 40.2254 25.8414 40.3063 25.7606C40.3535 25.7606 40.404 25.7606 40.4579 25.7606C40.7814 25.4678 40.5792 25.6597 40.9128 25.2861C40.9128 25.2323 40.9162 25.1818 40.923 25.1347C41.0038 25.064 41.0139 24.9126 41.1757 24.8419C41.1757 24.9227 41.1555 24.9933 41.2363 25.0034C41.479 24.8621 41.3273 24.7712 41.2667 24.6198C41.3206 24.566 41.3745 24.5188 41.4284 24.4785C41.4284 24.5592 41.5497 24.4987 41.479 24.4886C41.479 24.5693 41.5598 24.3068 41.6306 24.3169C41.8126 24.0343 41.6812 24.3674 41.9541 23.8424C42.0148 23.7819 42.1563 23.7314 42.1664 23.691C42.1462 23.691 42.3383 23.6102 42.2776 23.5295C42.2675 23.4689 42.2978 23.4386 42.1361 23.5093C42.2271 23.3578 42.4899 23.1256 42.5 22.9742C42.7224 23.0651 42.5405 22.7117 42.6921 22.7218C42.6112 22.7925 42.5304 22.6411 42.5405 22.7218H42.7932C42.9549 22.5704 42.5607 22.5704 42.7123 22.4089C42.7123 22.3281 42.6921 22.2877 42.6112 22.2978C42.6112 22.217 42.591 22.1565 42.6618 22.1565L42.7426 22.2271C42.8134 22.1464 42.6719 21.8839 42.8235 21.8031C42.8235 21.7223 42.8235 21.6517 42.8235 21.5709C43.0459 21.4094 42.9448 21.4296 43.0156 21.1974L42.9347 21.1267C42.9347 21.2075 43.0965 21.056 43.0257 21.056C43.0257 21.0022 43.0257 20.9483 43.0257 20.8945C43.1774 20.8137 43.2785 20.2888 43.2785 20.1373C43.2785 20.2989 43.1066 19.784 43.2582 19.8546C43.4806 19.5316 43.329 19.0975 43.3593 18.7037C43.1976 18.6432 43.4806 18.5321 43.3897 18.3908C43.3189 18.3908 43.238 18.411 43.2279 18.3302C43.2751 18.2696 43.3189 18.2124 43.3593 18.1586C43.3593 18.0879 43.3492 18.0071 43.2683 18.0172C43.2683 17.9365 43.2582 17.8557 43.329 17.8557C43.3189 17.7749 43.3088 17.7043 43.238 17.7144C43.2852 17.6538 43.329 17.5966 43.3694 17.5427C43.3694 17.462 43.2886 17.4721 43.2077 17.4923C43.2481 17.1692 42.9347 16.937 43.0459 16.6139C42.9752 16.6139 42.9651 16.5433 42.9549 16.4625C43.1571 16.2 42.8842 15.8871 43.0055 15.6347C42.8539 15.5741 42.9044 15.4126 42.8943 15.251C42.9651 15.1703 42.773 15.0895 42.7629 15.0087C42.5708 14.6352 42.6314 14.3424 42.5101 13.9588C42.3585 14.09 42.2574 12.8785 42.126 12.404C41.9339 12.1012 42.0653 11.7579 41.944 11.445C42.0249 11.445 42.1058 11.4248 42.0956 11.344C41.9946 11.1118 42.2271 11.0008 42.2776 10.7484C42.4394 10.7282 42.591 10.6272 42.773 10.7685C42.9246 10.6676 42.8336 10.5162 42.8235 10.4354C43.147 10.395 43.3897 10.3647 43.7132 10.3243C43.7132 10.4051 43.7233 10.4859 43.8142 10.4758C44.0569 10.4455 44.158 10.5969 44.3905 10.5666C44.3905 10.6474 44.4107 10.7282 44.4916 10.7181C44.6533 10.6979 44.7443 10.7685 44.8252 10.8392C44.9061 10.8392 44.9869 10.819 44.9768 10.7383L45.0678 10.8089L45.1386 10.7181C45.2296 10.7887 45.3104 10.7786 45.3913 10.7685C45.4823 10.8392 45.5025 11.0815 45.6643 10.9806C46.0484 11.5863 46.5135 12.1012 46.8167 12.717V12.7069Z" fill="white"></path>
<path d="M11.2416 14.1506C11.2112 14.0193 11.0293 13.979 10.9484 13.979C10.8675 13.979 10.726 14.1405 10.6451 14.0092C10.6451 14.0092 10.5137 14.2213 10.362 14.3222C10.261 14.3929 10.0992 14.3828 10.0992 14.3828C10.0588 14.5847 10.0385 14.6049 10.2104 15.0693C10.2913 15.0794 10.3722 15.5236 10.453 15.5438C10.4126 15.3722 10.6855 15.9072 10.7664 15.988C10.8001 15.9947 10.8372 16.0048 10.8776 16.0183C10.9282 16.0284 10.908 16.0789 10.8776 16.1293L11.1203 16.301C11.1405 16.3615 11.2011 16.3817 11.1405 16.4827C11.3224 16.4928 11.4438 16.6038 11.5954 16.6745C11.6459 16.6947 11.6156 16.7452 11.5954 16.7856C11.6459 16.8057 11.6965 16.8259 11.7268 16.7856C11.8582 16.7856 11.7673 16.9168 11.7875 16.9875L11.8683 16.9673C11.8886 17.0379 11.9897 17.0783 11.9897 17.0783C12.1514 17.3206 12.9399 17.6235 13.132 17.8456L13.2129 17.8052C13.2736 17.9365 13.6173 17.9567 13.6173 18.1182L13.688 18.0778C13.7285 18.1384 14.2441 18.2393 14.3856 18.31C14.4564 18.2696 14.3553 18.1889 14.4361 18.1485C14.517 18.2191 14.699 18.3807 14.7799 18.4614C14.7799 18.4614 15.0023 18.4816 15.164 18.5119C15.3662 18.7239 15.7807 18.5927 16.0233 18.7037C16.0536 18.7643 16.1042 18.7845 16.1547 18.7946L16.2356 18.7542L16.2659 18.8148C16.4176 18.734 16.4985 18.8148 16.6097 18.7239L16.64 18.7845L16.7209 18.7441C16.7411 18.7845 16.7613 18.8282 16.7815 18.8754C16.9938 18.9258 17.1859 19.0268 17.4184 18.9056C17.4487 18.9662 17.4993 18.9763 17.5599 18.9965C17.6139 18.9696 17.6644 18.9427 17.7116 18.9157C17.8733 18.946 17.9037 19.0167 18.0856 18.9965L18.116 19.0571C18.3485 18.9359 18.5102 18.9763 18.7225 19.0268C18.7731 18.9258 18.8843 19.0672 18.9348 18.9662L18.9652 19.0268C19.1471 18.8955 19.4201 18.9662 19.602 18.9561L19.6324 19.0167C19.7133 18.9763 19.6829 19.0167 19.6829 19.0167C19.8346 18.946 20.2187 18.9359 20.3198 18.8552C20.5321 18.9056 20.522 18.946 20.8152 18.9157C20.8758 18.9258 20.9971 18.9561 21.0477 18.9763C21.2903 18.8148 21.4925 18.8249 21.6947 18.9359C21.9272 18.8955 22.3114 18.7037 22.5136 18.6028C22.5742 18.623 22.6349 18.6331 22.6955 18.6533C22.7865 18.623 22.8472 18.6432 22.9078 18.5422C23.1707 18.4513 23.3628 18.3605 23.6054 18.1989C23.6357 18.2696 23.7772 18.1384 23.8076 18.1989C23.8076 18.1989 23.8278 18.1653 23.8682 18.098C23.9895 18.1384 24.0704 17.9869 24.1917 18.0273C24.1917 18.0273 24.2119 17.997 24.2524 17.9365C24.4343 17.8759 24.3636 17.8254 24.5354 17.7648C24.6871 17.6639 24.8994 17.3105 25.2532 17.149C25.2532 17.0379 25.4756 16.9774 25.5262 16.8764C25.5464 16.8259 25.6172 16.836 25.6677 16.8461L25.6374 16.7856C25.7182 16.7452 25.698 16.5836 25.7789 16.6543C25.7991 16.6038 25.9002 16.4726 25.8497 16.4625C26.0215 16.3312 26.0215 15.8971 26.2642 15.8467C26.2776 15.813 26.2911 15.7794 26.3046 15.7457C26.4057 15.6145 26.3652 15.3621 26.4259 15.3318C26.4461 15.2813 26.4259 15.251 26.4663 15.2611C26.527 15.0592 26.5775 14.7563 26.6382 14.4938C26.5877 14.4837 26.6079 14.4333 26.6382 14.3828C26.6887 14.3929 26.709 14.3424 26.7292 14.2919C26.6786 14.2818 26.6989 14.2314 26.7292 14.1809L26.8 14.1405C26.6989 14.1203 26.8101 13.979 26.709 13.9588L26.7797 13.9184C26.6887 13.6761 26.8202 13.4237 26.7292 13.1814L26.8 13.141C26.6786 12.9997 26.6989 12.8583 26.8 12.717C26.7595 12.6564 26.7797 12.606 26.8 12.5454C26.6584 12.4646 26.8303 12.3738 26.7393 12.293C26.7898 12.1416 26.618 11.9901 26.7191 11.8488C26.6483 11.7175 26.6382 11.6671 26.5674 11.5459C26.5775 11.4954 26.5978 11.4349 26.6079 11.3844C26.5573 11.3743 26.5068 11.3642 26.5169 11.3137C26.5978 11.2228 26.5169 11.1421 26.5371 11.0411C26.436 11.0209 26.4866 10.9301 26.4562 10.8695C26.4259 10.5868 26.345 10.3748 26.1833 10.1325C26.254 10.0316 26.1125 9.61763 26.1125 9.48639L26.0114 9.43591C25.971 9.30467 25.9204 9.234 25.8193 9.16333C25.8193 9.12295 25.8193 9.0792 25.8193 9.03208C25.7688 9.03208 25.7182 9.03208 25.7182 8.96142C25.7182 8.92103 25.7182 8.87728 25.7182 8.83017L25.6576 8.89075C25.5565 8.82008 25.5161 8.68883 25.5262 8.55759C25.3341 8.28501 25.2633 8.09319 24.9904 7.70955C24.8792 7.77013 24.9904 7.50764 24.8589 7.56821C24.7174 7.23506 24.6163 7.15429 24.404 6.95238C24.404 6.912 24.4074 6.86825 24.4141 6.82113C24.4209 6.77402 24.3804 6.77402 24.2928 6.82113C24.2322 6.82113 24.2423 6.75046 24.2423 6.68989C23.8986 6.47788 22.6955 6.31635 22.5136 5.98319C22.4125 5.98319 22.3013 5.91252 22.2406 6.04377C22.2069 5.99666 22.1766 5.95291 22.1496 5.91252C21.8666 6.10434 21.634 5.76109 21.3712 5.69042L21.3105 5.75099C21.2196 5.54908 21.0477 5.75099 20.9365 5.75099C20.8961 5.68032 20.8354 5.68032 20.7849 5.68032C20.5119 5.80147 20.2491 5.66013 20.0165 5.98319L19.966 5.91252L20.5726 7.03314C20.5624 7.09372 20.7242 7.79032 20.8859 8.14367C20.9365 8.14367 21.0073 8.28501 21.0477 8.35568C21.041 8.39606 21.0308 8.43644 21.0174 8.47682C21.0982 8.61816 21.1791 8.7696 21.26 8.91094C21.2094 8.90084 21.1892 8.96142 21.1791 9.02199C21.2398 9.2239 21.2398 9.44601 21.3004 9.64792C21.3813 9.71859 21.2903 9.76907 21.3813 9.85993C21.3813 9.85993 21.3206 9.99117 21.3409 9.99117C21.3004 10.0921 21.3712 10.2133 21.3712 10.2133C21.4015 10.4354 21.3914 10.2638 21.5431 10.4152C21.4015 10.5868 21.6442 10.8695 21.4925 11.0411C21.5734 11.1219 21.5734 11.0108 21.5936 11.0714C21.5936 11.0714 21.5768 11.1017 21.5431 11.1623C21.5431 11.1623 21.5633 11.2228 21.6138 11.243C21.6644 11.3642 21.5734 11.4449 21.6442 11.5661C21.6947 11.5762 21.6441 11.7377 21.6947 11.7478C21.7149 11.8589 21.8564 11.8993 21.7149 11.9699C21.6644 11.9598 21.6947 12.1819 21.6442 12.3334C21.6745 12.3939 21.6442 12.6564 21.6239 12.7069C21.6745 12.717 21.7149 12.6564 21.6947 12.7069C21.6812 12.7406 21.6677 12.7742 21.6543 12.8079C21.7048 12.818 21.7048 12.9088 21.6846 12.9593C21.6846 13.1208 21.5835 13.2016 21.5228 13.353C21.4622 13.6761 21.634 13.9487 21.4116 14.0597C21.4925 14.1304 21.3914 14.2213 21.3712 14.2717C21.3004 14.302 21.3207 14.4636 21.2499 14.5039C21.169 14.7058 21.1286 14.6958 21.0477 14.8876C20.9163 14.9683 20.8859 15.0491 20.7545 15.1299C20.7545 15.1299 20.741 15.1635 20.7141 15.2308C20.7141 15.2308 20.6433 15.2712 20.6029 15.2611C20.5119 15.352 20.2086 15.4933 20.1682 15.5842L20.1985 15.6447C20.0165 15.7154 19.966 15.7356 19.7638 15.8568C19.5616 15.9779 19.41 15.9779 19.2078 16.0789C19.0258 16.0284 18.8742 16.1596 18.6922 16.1091C18.6214 16.1495 18.5507 16.1798 18.4799 16.2202C18.3889 16.2 18.2474 16.2707 18.1867 16.1899C18.0957 16.1697 18.116 16.3312 18.025 16.3111C18.025 16.3111 17.9947 16.301 17.934 16.2808L17.9138 16.2202C17.7722 16.2909 17.661 16.2101 17.5195 16.2707L17.4993 16.2101C17.3578 16.2808 17.2466 16.2101 17.1556 16.2909C17.0343 16.2101 16.7815 16.2101 16.5793 16.2202C16.5996 16.1697 16.549 16.1596 16.5086 16.1495L16.4378 16.1899C16.458 16.1394 16.0435 16.1697 16.0031 16.1596L15.9121 16.1394L15.8818 16.0789L15.8211 16.1192C15.7504 16.0486 15.255 16.0082 15.1337 15.8769C15.0427 15.9678 14.9517 15.9274 14.8405 15.9072C14.3957 15.8769 13.8599 15.6851 13.8094 15.675L13.779 15.6145C13.6274 15.6952 13.3746 15.6145 13.3039 15.4832C13.2533 15.4731 13.1725 15.463 13.1219 15.4428C13.0613 15.3116 12.7175 15.3419 12.6771 15.2106C12.6771 15.2106 12.5052 15.0895 12.4244 14.9986C12.3132 15.0693 12.02 14.726 11.9694 14.7058H11.7774L11.7066 14.4938L11.4539 14.302C11.3528 14.1102 11.2416 14.2616 11.2112 14.1001L11.2416 14.1506Z" fill="white"></path>
<path d="M15.2854 6.67977C15.3561 6.67977 15.4269 6.67977 15.4976 6.68986C15.8414 7.03312 16.5086 6.93216 16.9534 7.16436C17.1354 7.03312 17.3275 7.11388 17.4892 7.05331C17.5229 7.10042 17.56 7.14753 17.6004 7.19465C17.9947 7.08359 18.1969 7.27541 18.5709 7.24513C18.6316 7.20474 18.6922 7.16436 18.7529 7.12398C18.8236 7.12398 18.8944 7.14417 18.8742 7.20474L18.9652 7.14417L19.0157 7.21484L19.1067 7.15426C19.0865 7.21484 19.1573 7.22493 19.228 7.23503C19.41 7.12398 19.5212 7.27541 19.7234 7.10379C19.7739 7.17446 19.8346 7.19465 19.9054 7.20474C20.1075 7.03312 20.1884 7.20474 20.4412 7.13407L20.4816 7.21484L20.5726 7.16436L20.5321 7.08359C20.5524 7.02302 20.6231 7.03312 20.6939 7.05331C20.8051 7.14417 20.886 7.28551 21.078 7.20474L21.1185 7.28551C21.2398 7.20474 20.3097 7.16436 21.7554 7.11388L21.9373 7.03312C21.9778 7.11388 22.0384 7.12398 22.0991 7.14417C22.2811 7.0634 22.4327 7.03312 22.6248 6.95235C22.6854 6.97254 22.7865 7.0634 22.9078 6.96245L22.9483 7.03312C23.11 7.01292 23.3223 7.00283 23.4841 6.98264C23.4639 7.04321 23.383 6.90187 23.4436 6.93216C23.6661 6.82111 23.9087 6.68986 24.1109 6.85139C24.3535 6.82111 24.4647 6.69996 24.7174 6.67977C24.7983 6.80092 25.0005 6.56872 25.1117 6.62929C25.233 6.68986 25.233 6.52833 25.3139 6.63939L25.3341 6.72015C25.3341 6.72015 25.3745 6.66967 25.4049 6.61919C25.506 6.62592 25.6003 6.60573 25.6879 6.55862C25.7486 6.58891 25.7991 6.62929 25.8396 6.56872C25.971 6.51824 26.0923 6.51824 26.2844 6.47785C26.3046 6.56872 26.436 6.43747 26.4057 6.48795C26.4967 6.46776 26.5877 6.44757 26.709 6.51824C26.7393 6.46776 26.7798 6.41728 26.8404 6.44757L26.9112 6.49805C26.9718 6.49805 26.9819 6.47785 27.0527 6.41728C27.821 6.34661 28.2557 5.97307 29.0139 5.97307C29.1454 5.9125 29.2869 5.85192 29.4183 5.79135C29.5497 5.73078 29.671 5.89231 29.7014 5.76106C29.6508 5.72068 29.8631 5.6702 29.9036 5.61972C30.0956 5.59953 30.2068 5.27647 30.2877 5.16542C30.2271 5.12504 30.2877 5.08465 30.2776 4.99379L30.3686 4.9736C30.3484 4.88274 30.3383 4.5193 30.3686 4.46882C30.3484 4.37796 30.217 4.43853 30.2574 4.38805L30.2271 4.32748C30.1765 4.2871 30.2473 4.19623 30.2776 4.14576C30.2372 3.96403 30.0754 4.16595 30.0047 4.0448L30.1462 3.83279C30.0855 3.71164 29.7924 3.63088 29.6913 3.56021C29.6104 3.66116 29.6205 3.62078 29.4891 3.69145L29.4486 3.59049C29.3172 3.66116 29.2363 3.5703 29.206 3.63088C29.2566 3.66116 29.1656 3.66116 29.1352 3.71164C29.0948 3.76212 29.0544 3.8126 29.0038 3.78231C28.9533 3.74193 28.8926 3.71164 28.8016 3.72174C28.7747 3.75539 28.7511 3.78904 28.7309 3.82269C28.3568 3.88327 27.5177 3.90346 27.4369 3.79241C27.3762 3.80587 27.3156 3.81933 27.2549 3.83279C27.3156 3.86308 27.2043 3.93375 27.2448 3.87317C27.3054 3.90346 27.0729 3.84289 27.0426 3.90346C26.7494 3.90346 26.0923 3.96403 26.2237 3.89336C26.0721 3.89336 25.7789 3.96403 25.6677 3.90346C25.6273 4.09528 25.415 3.79241 25.3543 3.90346C25.4453 3.88327 25.233 3.86308 25.2937 3.90346V3.98423C25.1117 4.0448 25.1016 3.86308 24.9196 3.93375C24.859 3.90346 24.8286 3.87317 24.859 3.82269C24.7983 3.8025 24.7579 3.76212 24.7275 3.82269L24.7579 3.90346C24.6669 3.93375 24.5051 3.75203 24.3838 3.83279C24.3232 3.8126 24.2625 3.78231 24.2019 3.76212C23.9896 3.88327 23.757 3.87317 23.5346 3.89336L23.4942 3.82269C23.5549 3.83279 23.383 3.94384 23.4133 3.88327C23.3729 3.86981 23.3291 3.85971 23.2819 3.85298C23.1707 3.96403 22.7057 3.95394 22.5742 3.92365C22.7057 3.95394 22.3114 3.70155 22.3316 3.83279C21.998 3.96403 21.624 3.77222 21.2701 3.76212C21.2499 3.63088 21.0983 3.85298 20.9871 3.76212C21.0073 3.70155 21.0275 3.64097 20.9668 3.63088C20.8759 3.68136 20.8152 3.66116 20.7242 3.71164C20.6636 3.71164 20.5928 3.69145 20.613 3.63088C20.5422 3.63088 20.4816 3.61069 20.4614 3.67126C20.3906 3.67126 20.3299 3.65107 20.3502 3.59049C20.2693 3.64097 20.1783 3.71164 20.0873 3.76212C20.0166 3.76212 20.0368 3.69145 20.057 3.63088C19.7638 3.67126 19.6021 3.40877 19.2988 3.50973C19.319 3.44916 19.2482 3.44916 19.1775 3.43906C18.9247 3.61069 18.5608 3.42896 18.3283 3.54002C18.2878 3.41887 18.1362 3.47944 18.0048 3.47944C17.9239 3.54002 17.8734 3.38858 17.8026 3.38858C17.4892 3.25734 17.2264 3.32801 16.8826 3.24724C17.0141 3.116 15.9425 3.116 15.528 3.03523C15.2752 2.89389 14.9618 3.03523 14.6889 2.95447C14.6687 3.02514 14.6586 3.08571 14.5878 3.08571C14.3856 3.01504 14.2744 3.21695 14.0419 3.27753C14.0116 3.40877 13.87 3.46935 13.9105 3.59049C13.8094 3.72174 13.7993 3.74193 13.7285 3.74193C13.6678 4.00442 13.6274 3.98423 13.5566 4.24671C13.6274 4.24671 13.6982 4.24671 13.678 4.31738C13.6274 4.5092 13.7487 4.58997 13.6982 4.79188C13.7689 4.79188 13.8397 4.79188 13.8195 4.86255C13.7892 4.99379 13.8397 5.06446 13.8903 5.13513C13.87 5.2058 13.8599 5.26637 13.7892 5.26637L13.8397 5.33704L13.7487 5.39762C13.7993 5.46829 13.7892 5.52886 13.7689 5.59953C13.8195 5.6702 14.0318 5.6803 13.9307 5.81154C14.4261 6.10432 14.8405 6.45766 15.3561 6.67977H15.2854Z" fill="white"></path>
</svg>